<svg width="289" height="204" viewBox="0 0 289 204" fill="none" xmlns="http://www.w3.org/2000/svg">
<path d="M160 8.89963C160 13.7996 160.9 23.6996 161.9 30.8996L163.9 43.9996L170.6 51.6996C174.3 55.9996 177.5 59.6996 177.7 59.8996C177.8 60.0996 178 46.7996 178 30.1996V-0.000373207H169H160V8.89963Z" fill="white" fill-opacity="0.9"/>
<path d="M135.501 9.59984C135.901 13.8998 136.701 17.9998 137.401 18.6998C138.601 19.9998 154.201 26.0998 154.801 25.5998C154.901 25.3998 154.601 21.4998 153.901 16.8998L152.801 8.49984L145.601 5.79984C141.701 4.29984 137.701 2.69984 136.701 2.39984C134.901 1.79984 134.801 2.19984 135.501 9.59984Z" fill="white" fill-opacity="0.9"/>
<path d="M262.699 5.3C256.999 7.5 254.799 8.9 254.499 10.4C254.299 11.6 253.199 26 251.999 42.5C250.899 59 249.699 75.1 249.299 78.3L248.699 84L252.099 82.6L255.499 81.2L255.799 53.7L255.999 26.2L263.299 23.4C267.199 21.9 270.799 20.4 271.099 20.1C271.499 19.8 271.999 15.6 272.299 10.7C272.799 4.3 272.599 2 271.699 2.1C270.999 2.2 266.999 3.6 262.699 5.3Z" fill="white" fill-opacity="0.9"/>
<path d="M184 38.0001C184 67.0001 184.2 71.5001 185.7 74.3001C186.6 76.1001 188.1 80.0001 189.1 83.0001C190.3 87.1001 191.3 88.6001 192.9 88.8001L195 89.1001L195.2 51.3001L195.5 13.5001L198.8 13.2001C201.8 12.9001 202 12.6001 202 8.9001V5.0001H193H184V38.0001Z" fill="white" fill-opacity="0.9"/>
<path d="M222 49.8998V89.7998L226.7 89.1998C229.3 88.8998 233.4 88.1998 235.9 87.4998L240.5 86.3998L240.8 48.1998L241 9.9998H231.5H222V49.8998Z" fill="white" fill-opacity="0.9"/>
<path d="M201 54.5V90H208.5H216V54.5V19H208.5H201V54.5Z" fill="white" fill-opacity="0.9"/>
<path d="M269.8 27.1999L262 30.2999V53.7999V77.3999L264.9 74.5999C267.9 71.7999 269.3 68.8999 270.4 63.6999C271 61.1999 271.4 60.9999 275.5 60.9999H280V42.4999C280 28.2999 279.7 23.9999 278.8 24.0999C278.1 24.1999 274 25.5999 269.8 27.1999Z" fill="white" fill-opacity="0.9"/>
<path d="M135.601 26.4001C135.901 27.2001 138.201 28.7001 140.801 29.9001C143.401 31.0001 147.401 33.1001 149.801 34.5001L154.001 37.1001V34.7001C154.001 32.9001 153.201 31.9001 151.301 31.2001C149.701 30.6001 145.501 29.0001 141.801 27.6001C137.001 25.8001 135.201 25.4001 135.601 26.4001Z" fill="white" fill-opacity="0.9"/>
<path d="M73.1008 27.5C51.3008 32.4 35.9008 40.9 22.1008 55.6C10.6008 68 3.80078 82.2 1.50078 98.7L0.800781 104H93.4008H186.001V99.7C186.001 89.9 179.301 72.8 171.201 61.7C160.301 47 141.201 34.7 120.501 29C110.101 26.1 83.0008 25.2 73.1008 27.5ZM133.001 56.5C133.701 57.3 134.301 59.1 134.301 60.5C134.301 64 132.301 66 128.901 66C125.101 66 122.501 62.3 123.901 58.7C125.401 54.9 130.601 53.6 133.001 56.5ZM111.001 80.1C113.401 84.6 109.601 89.5 104.701 88.2C101.901 87.5 100.401 83.6 101.801 80.5C103.301 77.2 109.301 76.9 111.001 80.1ZM148.801 79.2C150.901 81.3 150.201 85.8 147.501 87.6C142.601 90.8 137.101 85.3 140.001 80.1C141.201 77.7 146.801 77.2 148.801 79.2Z" fill="white" fill-opacity="0.9"/>
<path d="M274.999 70.4C271.599 80.7 254.599 90.4 232.599 94.5C223.399 96.2 198.299 96.9 193.999 95.5C191.799 94.8 191.699 94.9 192.299 99.4C193.199 105.7 192.199 110 189.899 110C188.199 110 188.199 110.3 189.599 114.2C191.499 119.6 190.599 125.1 187.299 129.1L184.699 132.1L186.899 134.3C187.999 135.6 189.499 138 190.099 139.8L191.199 143H237.499H283.699L284.399 136.2C284.899 130.7 286.599 103.1 288.399 73.2L288.699 67H282.399C276.199 67 276.099 67 274.999 70.4Z" fill="white" fill-opacity="0.9"/>
<path d="M10.4993 110.7C4.09928 112.4 1.39928 118.4 4.59928 123.8C5.49928 125.5 7.39928 127.3 8.69928 127.9C10.3993 128.7 36.4993 129 93.7993 129C174.699 129 176.599 128.9 179.799 127C185.499 123.5 186.199 117.4 181.299 112.8L178.799 110.5L95.6993 110.4C49.8993 110.3 11.5993 110.4 10.4993 110.7Z" fill="white" fill-opacity="0.9"/>
<path d="M8.4 136C5.4 137.2 3 140.9 3 144.3C3 147.8 7.8 152.9 11.2 153.1C12.5 153.2 14.5 153.4 15.8 153.5C18.5 153.8 18.5 153 16.1 148.2C15.1 146.2 13.7 142.7 13 140.5C11.4 135.4 11 135 8.4 136Z" fill="white" fill-opacity="0.9"/>
<path d="M18 136.1C18 136.7 19.4 140.5 21.1 144.6C24.5 152.7 29.6 159 32.7 159C34.9 159 38.6 155.3 41.8 150C44 146.3 50.8 139.4 55 136.6C57.3 135.1 56.4 135 37.7 135C24.4 135 18 135.3 18 136.1Z" fill="white" fill-opacity="0.9"/>
<path d="M61.9999 139.1C56.1999 143.2 46.6999 152.1 47.3999 152.7C48.0999 153.5 140 153.5 140 152.8C140 151 132.5 143.9 126.1 139.6L119.2 135L93.2999 135.1H67.4999L61.9999 139.1Z" fill="white" fill-opacity="0.9"/>
<path d="M131.6 135.8C132.1 136.3 134.7 138.4 137.3 140.5C140 142.6 143.5 146.4 145.2 148.9C149.7 155.5 153.1 159 155.2 159C156.3 159 158.3 157.8 159.7 156.2C162.1 153.6 168.1 142.1 169.5 137.2L170.1 135H150.4C139.5 135 131 135.4 131.6 135.8Z" fill="white" fill-opacity="0.9"/>
<path d="M173.502 143.3C169.302 154.8 169.202 154 174.202 153.4C179.902 152.6 181.702 151.5 183.602 147.9C186.002 143.2 183.502 137.2 178.502 135.7C176.702 135.1 176.102 136.1 173.502 143.3Z" fill="white" fill-opacity="0.9"/>
<path d="M187.299 153.3L185.199 156.7L187.799 159.9C190.399 163.4 191.299 170.2 189.699 174.7L188.899 177H234.399H279.999L280.399 174.7C280.999 172.1 282.999 153.9 282.999 151.6C282.999 150.2 278.199 150 236.299 150H189.499L187.299 153.3Z" fill="white" fill-opacity="0.9"/>
<path d="M161.999 162.2C157.899 165.9 152.399 166 148.199 162.5L145.199 160H94.0992H42.8992L39.1992 162.5C37.1992 163.9 34.1992 165 32.4992 165C30.7992 165 27.7992 163.9 25.7992 162.5C22.6992 160.4 20.8992 160 15.0992 160C8.59917 160 7.99917 160.2 5.59917 163.1C2.59917 166.6 2.39917 168.9 4.49917 172.9C6.39917 176.7 7.99917 177.3 17.8992 177.9L26.2992 178.5L27.5992 182.4C29.2992 187.2 31.4992 188.9 36.0992 189C40.5992 189 43.6992 185.9 44.5992 180.3C45.3992 175.3 47.9992 170.7 51.4992 168.4C54.9992 166.1 62.7992 166.2 66.7992 168.5C70.2992 170.6 73.9992 177.1 73.9992 181.2C73.9992 185.4 77.5992 189 81.7992 189C87.0992 188.9 89.5992 186.5 90.8992 180C92.3992 172.8 94.2992 170.2 99.5992 167.8C109.199 163.6 119.999 170.6 119.999 180.9C119.999 188.3 130.399 192.1 134.899 186.4C136.099 184.9 136.999 182.6 136.999 181.2C136.999 177.1 140.699 170.6 144.199 168.6C151.099 164.5 160.699 167.2 164.499 174.3C166.399 177.8 166.799 178 171.299 178C177.999 178 182.599 175.6 183.999 171.6C186.399 164.4 181.799 160 171.599 159.7C165.799 159.5 164.799 159.8 161.999 162.2Z" fill="white" fill-opacity="0.9"/>
<path d="M53.2991 175.2C52.1991 176.5 50.8991 179.3 50.4991 181.5C49.1991 189.2 45.9991 193.1 39.6991 194.8C32.8991 196.7 24.0991 192.4 22.5991 186.5C22.0991 184.4 21.2991 184.2 14.7991 183.8C10.7991 183.5 6.5991 182.9 5.5991 182.5C3.7991 181.7 3.6991 182 4.3991 187C5.1991 192.9 6.1991 195.4 9.3991 198.8C14.1991 204.1 12.3991 204 94.1991 204C168.099 204 170.199 203.9 173.999 202C179.199 199.3 182.999 192.9 182.999 186.7C182.999 182.1 182.999 182.1 180.399 183C176.799 184.4 162.699 184.3 161.199 182.8C160.499 182.1 159.999 180.9 159.999 179.9C159.999 179 159.099 177.1 157.899 175.6C155.799 173 151.399 172.1 147.499 173.6C145.599 174.4 142.999 179.1 142.999 182C142.999 185.3 139.999 191 137.399 192.7C133.899 195 128.299 195.9 124.499 194.9C119.399 193.5 113.999 186.7 113.999 181.8C113.999 176.5 110.499 173 105.199 173C100.299 173 97.9991 175.3 96.8991 181.7C95.2991 190.2 89.9991 195.2 82.5991 195.2C74.2991 195.2 68.8991 190.1 67.4991 180.7C66.6991 175.5 63.8991 173 59.1991 173C56.4991 173 54.6991 173.7 53.2991 175.2Z" fill="white" fill-opacity="0.9"/>
<path d="M189.602 185.2C189.302 186.5 189.002 188.8 189.002 190.4C189.002 192 187.902 195.3 186.502 197.7L183.902 202H229.402H274.902L276.402 197.1C277.202 194.3 278.202 190.1 278.502 187.6L279.202 183H234.702H190.202L189.602 185.2Z" fill="white" fill-opacity="0.9"/>
</svg>
